HIERARCHY
ROOT Hips
{
	OFFSET	1.500000	0.000000	0.000000
	CHANNELS 6 Xposition Yposition Zposition Xrotation Yrotation Zrotation 

		End Site
		{
			OFFSET	0.0	0.0	0.0
		}
}
MOTION
Frames:    6
Frame Time: 0.01
0 0 0 0 0 0
0 1 0 0 0 0 
0 1 0 0 45 0 
0 1 0 0 90 0 
0 1 0 0 90 0 
0 1 0 0 90 0 
